<svg width="30" height="16" viewBox="0 0 30 16" fill="none" xmlns="http://www.w3.org/2000/svg">
<path d="M29.4002 8.23198C29.1737 8.92871 28.6951 9.17025 27.9976 9.1687C20.2856 9.15633 12.5729 9.16096 4.86092 9.16096C4.74992 9.16096 4.63891 9.16096 4.45965 9.16096C4.57216 9.28174 4.64341 9.36147 4.71767 9.43888C5.93274 10.6883 7.14707 11.9378 8.36365 13.185C8.69367 13.5233 8.80168 13.9274 8.67192 14.3803C8.55116 14.8007 8.26389 15.0693 7.84686 15.1684C7.41559 15.2706 7.05856 15.1204 6.75104 14.8038C5.39046 13.4041 4.02687 12.0075 2.66478 10.6094C2.16 10.0907 1.66047 9.56663 1.14894 9.05568C0.909677 8.81647 0.704164 8.56177 0.597656 8.23198C0.597656 8.07715 0.597656 7.9223 0.597656 7.76747C0.704914 7.43845 0.912678 7.18608 1.14894 6.94454C3.01281 5.03856 4.87068 3.12639 6.73229 1.21808C7.22883 0.708692 7.87387 0.661468 8.3419 1.0919C8.84143 1.55097 8.85643 2.30268 8.3614 2.8144C7.15007 4.06699 5.93274 5.31416 4.71542 6.56056C4.64341 6.6341 4.5519 6.68675 4.4694 6.74945C4.48365 6.77965 4.49865 6.80984 4.5129 6.83926C4.61941 6.83926 4.72592 6.83926 4.83243 6.83926C12.5534 6.83926 20.2751 6.8439 27.9961 6.83152C28.6944 6.82997 29.1729 7.07151 29.4002 7.76747C29.4002 7.92231 29.4002 8.07715 29.4002 8.23198Z" fill="#060F1F"/>
</svg>
