<?xml version="1.0" encoding="UTF-8"?>
<svg id="Layer_2" xmlns="http://www.w3.org/2000/svg" viewBox="0 0 250.37 250.36">
  <defs>
    <style>
      .cls-1 {
        fill: #a1a1a9;
      }
    </style>
  </defs>
  <g id="Layer_1-2" data-name="Layer_1">
    <g>
      <path class="cls-1" d="M232.87,169.6H17.5c-9.65,0-17.5-7.85-17.5-17.5s7.85-17.5,17.5-17.5h215.37c9.65,0,17.5,7.85,17.5,17.5s-7.85,17.5-17.5,17.5ZM17.5,142.68c-5.2,0-9.42,4.23-9.42,9.43s4.23,9.43,9.42,9.43h215.37c5.2,0,9.42-4.23,9.42-9.43s-4.23-9.43-9.42-9.43H17.5Z"/>
      <path class="cls-1" d="M231.19,142.68H19.18c-1.08,0-2.12-.43-2.88-1.21-.76-.78-1.18-1.82-1.16-2.9,0,0,.11-5.3.09-6.47-.01-.09-.02-.18-.02-.26-1.5-52.4,34.47-98.82,85.52-110.39,2.2-.51,4.34.87,4.83,3.04.49,2.18-.87,4.34-3.04,4.83-47.3,10.72-80.63,53.74-79.24,102.28h-.03c.05.72.05,1.67.04,3.02h203.79c-.02-1.35,0-2.3.04-3.01h-.03c1.39-48.55-31.94-91.57-79.24-102.29-2.17-.49-3.54-2.66-3.04-4.83.49-2.17,2.65-3.55,4.83-3.04,51.05,11.57,87.02,58,85.52,110.39,0,.09,0,.18-.02.26-.03,1.17.09,6.47.09,6.47.02,1.08-.4,2.13-1.16,2.9-.76.78-1.8,1.21-2.88,1.21ZM231.12,131.71h.07-.07Z"/>
      <path class="cls-1" d="M148.74,88.83c-2.23,0-4.04-1.81-4.04-4.04V17.5c0-5.19-4.23-9.43-9.42-9.43h-20.19c-5.2,0-9.42,4.23-9.42,9.43v67.3c0,2.23-1.81,4.04-4.04,4.04s-4.04-1.81-4.04-4.04V17.5c0-9.65,7.85-17.5,17.5-17.5h20.19c9.65,0,17.5,7.85,17.5,17.5v67.3c0,2.23-1.81,4.04-4.04,4.04Z"/>
      <path class="cls-1" d="M176.47,75.37c-2.23,0-4.04-1.81-4.04-4.04v-35.36c0-2.23,1.81-4.04,4.04-4.04s4.04,1.81,4.04,4.04v35.36c0,2.23-1.81,4.04-4.04,4.04Z"/>
      <path class="cls-1" d="M73.9,75.37c-2.23,0-4.04-1.81-4.04-4.04v-35.36c0-2.23,1.81-4.04,4.04-4.04s4.04,1.81,4.04,4.04v35.36c0,2.23-1.81,4.04-4.04,4.04Z"/>
      <path class="cls-1" d="M192.49,250.36h-39.44c-5.56,0-10.77-2.68-13.93-7.16l-6.59-9.28c-3.32-4.71-11.37-4.7-14.68,0l-6.6,9.3c-3.16,4.47-8.37,7.14-13.93,7.14h-39.44c-13.36,0-24.23-10.86-24.23-24.23v-20.19c0-13.36,10.87-24.23,24.23-24.23h134.61c13.36,0,24.23,10.86,24.23,24.23v20.19c0,13.36-10.87,24.23-24.23,24.23ZM125.18,222.1c5.56,0,10.77,2.68,13.93,7.16l6.59,9.28c1.66,2.35,4.4,3.75,7.34,3.75h39.44c8.91,0,16.15-7.25,16.15-16.16v-20.19c0-8.91-7.25-16.16-16.15-16.16H57.88c-8.91,0-16.15,7.25-16.15,16.16v20.19c0,8.91,7.25,16.16,16.15,16.16h39.44c2.94,0,5.68-1.4,7.33-3.74l6.6-9.31c3.16-4.47,8.37-7.14,13.93-7.14Z"/>
      <path class="cls-1" d="M231.19,230.17h-18.51c-2.23,0-4.04-1.81-4.04-4.04v-20.19c0-2.23,1.81-4.04,4.04-4.04h18.51c2.23,0,4.04,1.81,4.04,4.04v20.19c0,2.23-1.81,4.04-4.04,4.04ZM216.72,222.1h10.43v-12.12h-10.43v12.12Z"/>
      <path class="cls-1" d="M37.69,230.17h-18.51c-2.23,0-4.04-1.81-4.04-4.04v-20.19c0-2.23,1.81-4.04,4.04-4.04h18.51c2.23,0,4.04,1.81,4.04,4.04v20.19c0,2.23-1.81,4.04-4.04,4.04ZM23.22,222.1h10.43v-12.12h-10.43v12.12Z"/>
    </g>
  </g>
</svg>