<?xml version="1.0" encoding="UTF-8"?>
<svg id="Layer_2" xmlns="http://www.w3.org/2000/svg" viewBox="0 0 276.57 210.5">
  <defs>
    <style>
      .cls-1 {
        fill: #a1a1a9;
      }
    </style>
  </defs>
  <g id="Layer_1-2" data-name="Layer_1">
    <g>
      <path class="cls-1" d="M81.33,189.05h-23.75c-2.31,0-4.19-1.88-4.19-4.19v-41.9c0-2.31,1.88-4.19,4.19-4.19h23.75c2.31,0,4.19,1.88,4.19,4.19v41.9c0,2.31-1.88,4.19-4.19,4.19ZM61.76,180.66h15.37v-33.52h-15.37v33.52Z"/>
      <path class="cls-1" d="M125.71,189.05h-23.75c-2.31,0-4.19-1.88-4.19-4.19v-54.13c0-2.31,1.88-4.19,4.19-4.19h23.75c2.31,0,4.19,1.88,4.19,4.19v54.13c0,2.31-1.88,4.19-4.19,4.19ZM106.15,180.66h15.37v-45.75h-15.37v45.75Z"/>
      <path class="cls-1" d="M170.11,189.05h-23.75c-2.31,0-4.19-1.88-4.19-4.19v-69.93c0-2.31,1.88-4.19,4.19-4.19h23.75c2.31,0,4.19,1.88,4.19,4.19v69.93c0,2.31-1.88,4.19-4.19,4.19ZM150.54,180.66h15.37v-61.55h-15.37v61.55Z"/>
      <path class="cls-1" d="M214.5,189.05h-23.75c-2.31,0-4.19-1.88-4.19-4.19v-90.33c0-2.31,1.88-4.19,4.19-4.19h23.75c2.31,0,4.19,1.88,4.19,4.19v90.33c0,2.31-1.88,4.19-4.19,4.19ZM194.94,180.66h15.37v-81.95h-15.37v81.95Z"/>
      <path class="cls-1" d="M272.38,210.5H4.19c-2.31,0-4.19-1.88-4.19-4.19V4.19C0,1.88,1.88,0,4.19,0s4.19,1.88,4.19,4.19v197.93h264c2.31,0,4.19,1.88,4.19,4.19s-1.88,4.19-4.19,4.19Z"/>
      <path class="cls-1" d="M45.61,121.11c-1.47,0-2.9-.78-3.67-2.15-1.13-2.02-.4-4.57,1.62-5.7L212.46,19.18c2.01-1.13,4.57-.4,5.7,1.62,1.13,2.02.4,4.57-1.62,5.7L47.65,120.58c-.64.36-1.35.53-2.03.53Z"/>
      <path class="cls-1" d="M207.73,51.76c-.37,0-.74-.05-1.11-.15-2.23-.61-3.54-2.91-2.93-5.15l5.66-20.68-20.68-5.66c-2.23-.61-3.55-2.92-2.94-5.15.61-2.23,2.92-3.54,5.15-2.94l24.72,6.77c1.07.29,1.99,1,2.54,1.97.55.97.7,2.11.4,3.18l-6.77,24.72c-.51,1.86-2.19,3.08-4.04,3.08Z"/>
    </g>
  </g>
</svg>