<?xml version="1.0" encoding="UTF-8"?>
<svg id="Layer_2" xmlns="http://www.w3.org/2000/svg" viewBox="0 0 243.94 242.07">
  <defs>
    <style>
      .cls-1 {
        fill: #a1a1a9;
      }
    </style>
  </defs>
  <g id="Layer_1-2" data-name="Layer_1">
    <g>
      <g>
        <path class="cls-1" d="M228.77,201.05h-16.91c-2.59,0-4.69-2.1-4.69-4.69s2.1-4.69,4.69-4.69h16.91c3.19,0,5.79-2.6,5.79-5.79V54.39H9.38v131.49c0,3.19,2.6,5.79,5.79,5.79h18.27c2.59,0,4.69,2.1,4.69,4.69s-2.1,4.69-4.69,4.69H15.17c-8.37,0-15.17-6.81-15.17-15.17V49.7c0-2.59,2.1-4.69,4.69-4.69h234.56c2.59,0,4.69,2.1,4.69,4.69v136.18c0,8.36-6.8,15.17-15.17,15.17Z"/>
        <path class="cls-1" d="M239.25,54.39H4.69c-2.59,0-4.69-2.1-4.69-4.69V15.17C0,6.81,6.8,0,15.17,0h213.61c8.37,0,15.17,6.81,15.17,15.17v34.53c0,2.59-2.1,4.69-4.69,4.69ZM9.38,45.01h225.18V15.17c0-3.19-2.6-5.79-5.79-5.79H15.17c-3.19,0-5.79,2.6-5.79,5.79v29.84Z"/>
        <g>
          <circle class="cls-1" cx="166.09" cy="27.19" r="6.09"/>
          <path class="cls-1" d="M194.49,27.19c0,3.36-2.73,6.09-6.09,6.09s-6.09-2.72-6.09-6.09,2.73-6.09,6.09-6.09,6.09,2.73,6.09,6.09Z"/>
          <circle class="cls-1" cx="210.72" cy="27.19" r="6.09"/>
        </g>
      </g>
      <path class="cls-1" d="M130.49,242.07h-17.04c-1.99,0-3.77-1.26-4.43-3.14l-5.46-15.63c-1.54-.56-3.08-1.21-4.61-1.93l-14.94,7.2c-1.8.87-3.94.5-5.36-.91l-12.04-12.04c-1.41-1.41-1.77-3.56-.91-5.35l7.2-14.94c-.72-1.54-1.37-3.08-1.93-4.61l-15.63-5.46c-1.88-.66-3.14-2.43-3.14-4.43v-17.03c0-2,1.26-3.77,3.14-4.43l15.63-5.46c.56-1.54,1.21-3.08,1.93-4.61l-7.2-14.94c-.87-1.8-.5-3.94.91-5.35l12.04-12.05c1.41-1.41,3.56-1.78,5.36-.91l14.94,7.2c1.53-.72,3.06-1.37,4.6-1.93l5.46-15.63c.66-1.88,2.44-3.14,4.43-3.14h17.04c1.99,0,3.77,1.26,4.43,3.14l5.46,15.63c1.54.56,3.07,1.21,4.6,1.93l14.94-7.2c1.8-.86,3.95-.5,5.36.91l12.04,12.05c1.41,1.41,1.77,3.56.91,5.35l-7.2,14.94c.73,1.54,1.37,3.07,1.93,4.61l15.63,5.46c1.88.66,3.14,2.43,3.14,4.43v17.03c0,2-1.26,3.77-3.14,4.43l-15.63,5.46c-.56,1.54-1.21,3.08-1.93,4.61l7.2,14.94c.87,1.8.5,3.94-.91,5.35l-12.04,12.04c-1.41,1.41-3.56,1.77-5.36.91l-14.93-7.2c-1.54.73-3.07,1.37-4.61,1.93l-5.46,15.63c-.66,1.88-2.44,3.15-4.43,3.15ZM116.79,232.69h10.38l5.11-14.64c.49-1.4,1.62-2.49,3.04-2.93,2.47-.76,4.98-1.82,7.46-3.12,1.32-.69,2.88-.72,4.22-.07l14.01,6.75,7.33-7.33-6.75-14.01c-.65-1.34-.62-2.9.07-4.22,1.3-2.47,2.35-4.99,3.13-7.46.44-1.42,1.53-2.54,2.93-3.03l14.65-5.12v-10.37l-14.65-5.12c-1.4-.49-2.49-1.61-2.93-3.03-.76-2.46-1.81-4.97-3.12-7.46-.69-1.31-.71-2.88-.07-4.21l6.75-14.01-7.33-7.34-14.01,6.76c-1.34.64-2.9.62-4.22-.07-2.48-1.3-4.99-2.35-7.45-3.12-1.42-.44-2.55-1.53-3.04-2.93l-5.12-14.65h-10.38l-5.12,14.65c-.49,1.4-1.62,2.49-3.04,2.93-2.48.77-4.98,1.82-7.45,3.12-1.32.69-2.89.72-4.22.08l-14.01-6.76-7.34,7.34,6.75,14.01c.65,1.34.62,2.9-.07,4.22-1.3,2.47-2.35,4.98-3.12,7.46-.44,1.42-1.53,2.54-2.93,3.03l-14.65,5.12v10.37l14.65,5.12c1.4.49,2.49,1.62,2.93,3.04.76,2.46,1.81,4.97,3.12,7.46.69,1.32.71,2.88.07,4.22l-6.75,14.01,7.34,7.33,14.01-6.75c1.34-.64,2.91-.62,4.22.08,2.47,1.3,4.98,2.35,7.45,3.12,1.42.44,2.55,1.53,3.04,2.93l5.12,14.65ZM187.05,180.82h.05-.05ZM121.97,209.72c-20.62,0-37.41-16.78-37.41-37.41s16.78-37.41,37.41-37.41,37.41,16.78,37.41,37.41-16.78,37.41-37.41,37.41ZM121.97,144.28c-15.45,0-28.02,12.57-28.02,28.02s12.57,28.03,28.02,28.03,28.03-12.57,28.03-28.03-12.58-28.02-28.03-28.02Z"/>
    </g>
  </g>
</svg>