<?xml version="1.0" encoding="UTF-8"?>
<svg id="Layer_2" xmlns="http://www.w3.org/2000/svg" viewBox="0 0 293.27 217.25">
  <defs>
    <style>
      .cls-1 {
        fill: #a1a1a9;
      }
    </style>
  </defs>
  <g id="Layer_1-2" data-name="Layer_1">
    <g>
      <path class="cls-1" d="M272.84,217.25H20.43c-11.27,0-20.43-9.16-20.43-20.44s9.17-20.43,20.43-20.43h252.4c11.27,0,20.44,9.16,20.44,20.43s-9.17,20.44-20.44,20.44ZM20.43,185.26c-6.37,0-11.55,5.18-11.55,11.55s5.18,11.55,11.55,11.55h252.4c6.37,0,11.55-5.18,11.55-11.55s-5.18-11.55-11.55-11.55H20.43Z"/>
      <path class="cls-1" d="M167.91,201.26h-42.54c-2.45,0-4.44-1.99-4.44-4.45s1.99-4.44,4.44-4.44h42.54c2.45,0,4.45,1.99,4.45,4.44s-1.99,4.45-4.45,4.45Z"/>
      <path class="cls-1" d="M255.92,185.26H37.35c-8.98,0-16.29-7.31-16.29-16.29V16.29C21.05,7.31,28.37,0,37.35,0h218.58c8.98,0,16.29,7.31,16.29,16.29v152.68c0,8.98-7.31,16.29-16.29,16.29ZM37.35,8.89c-4.09,0-7.41,3.32-7.41,7.41v152.68c0,4.08,3.32,7.41,7.41,7.41h218.58c4.08,0,7.41-3.32,7.41-7.41V16.29c0-4.08-3.32-7.41-7.41-7.41H37.35Z"/>
      <g>
        <path class="cls-1" d="M107.49,162.08h-39.15c-2.45,0-4.45-1.99-4.45-4.44v-24.62c0-2.45,1.99-4.45,4.45-4.45h39.15c2.45,0,4.44,1.99,4.44,4.45v24.62c0,2.45-1.99,4.44-4.44,4.44ZM72.78,153.2h30.27v-15.73h-30.27v15.73Z"/>
        <path class="cls-1" d="M146.64,162.08h-39.15c-2.45,0-4.44-1.99-4.44-4.44v-59.76c0-2.45,1.99-4.45,4.44-4.45h39.15c2.45,0,4.45,1.99,4.45,4.45v59.76c0,2.45-1.99,4.44-4.45,4.44ZM111.93,153.2h30.26v-50.87h-30.26v50.87Z"/>
        <path class="cls-1" d="M224.94,162.08h-39.15c-2.45,0-4.45-1.99-4.45-4.44V62.04c0-2.45,1.99-4.44,4.45-4.44h39.15c2.45,0,4.44,1.99,4.44,4.44v95.61c0,2.45-1.99,4.44-4.44,4.44ZM190.23,153.2h30.27v-86.72h-30.27v86.72Z"/>
        <path class="cls-1" d="M185.79,162.08h-39.15c-2.45,0-4.44-1.99-4.44-4.44V27.62c0-2.45,1.99-4.44,4.44-4.44h39.15c2.45,0,4.44,1.99,4.44,4.44v130.02c0,2.45-1.99,4.44-4.44,4.44ZM151.08,153.2h30.26V32.07h-30.26v121.13Z"/>
      </g>
    </g>
  </g>
</svg>