<?xml version="1.0" encoding="UTF-8"?>
<svg id="Layer_2" xmlns="http://www.w3.org/2000/svg" viewBox="0 0 260.59 239.18">
  <defs>
    <style>
      .cls-1 {
        fill: #a1a1a9;
      }
    </style>
  </defs>
  <g id="Layer_1-2" data-name="Layer_1">
    <g>
      <path class="cls-1" d="M98.16,110.62C43.11,110.62,0,86.33,0,55.33S43.11,0,98.16,0s98.15,24.3,98.15,55.33c0,9.58-4.3,18.96-12.42,27.14-.64.65-1.49,1.05-2.39,1.15-21.33,2.24-39.22,10.68-45.59,21.5-.56.95-1.49,1.62-2.56,1.86-11.09,2.41-22.93,3.63-35.2,3.63ZM98.16,7.89C48.39,7.89,7.9,29.18,7.9,55.33s40.49,47.39,90.26,47.39c11.11,0,21.84-1.05,31.91-3.12,8.13-12.08,26.66-21.02,49.17-23.67,6.01-6.42,9.18-13.51,9.18-20.6,0-26.16-40.49-47.44-90.26-47.44ZM181.09,79.7h.05-.05Z"/>
      <path class="cls-1" d="M98.16,153.49C43.11,153.49,0,129.18,0,98.15c0-2.18,1.77-3.95,3.95-3.95s3.95,1.77,3.95,3.95c0,26.16,40.49,47.44,90.26,47.44,10.42,0,20.7-.95,30.56-2.84,2.13-.4,4.21.99,4.62,3.14.41,2.14-1,4.21-3.14,4.62-10.34,1.97-21.12,2.97-32.04,2.97Z"/>
      <path class="cls-1" d="M98.16,196.31C43.11,196.31,0,172.02,0,141.02c0-2.18,1.77-3.95,3.95-3.95s3.95,1.77,3.95,3.95c0,26.13,40.49,47.39,90.26,47.39,10.43,0,20.72-.95,30.56-2.83,2.13-.4,4.21.99,4.62,3.14.41,2.14-.99,4.21-3.14,4.62-10.33,1.97-21.11,2.97-32.04,2.97Z"/>
      <path class="cls-1" d="M98.16,239.18C43.11,239.18,0,214.9,0,183.9V55.33c0-2.18,1.77-3.95,3.95-3.95s3.95,1.77,3.95,3.95v128.56c0,26.13,40.49,47.39,90.26,47.39,18.39,0,36.13-2.95,51.3-8.52,2.05-.76,4.32.3,5.07,2.34.75,2.05-.3,4.32-2.34,5.07-16.04,5.89-34.72,9-54.03,9Z"/>
      <path class="cls-1" d="M192.36,83.05c-2.18,0-3.95-1.77-3.95-3.95v-23.77c0-2.18,1.77-3.95,3.95-3.95s3.95,1.77,3.95,3.95v23.77c0,2.18-1.77,3.95-3.95,3.95Z"/>
      <path class="cls-1" d="M193.05,152.4l-1.87-.05c-15.03-.19-29.18-3.13-40.78-8.48-15.82-7.32-24.88-18.29-24.88-30.12,0-4.33,1.21-8.58,3.6-12.64,7.71-13.1,27.47-22.82,51.57-25.35,4.38-.41,8.18-.61,11.69-.61h.69c37.87,0,67.54,16.95,67.54,38.6s-29.67,38.65-67.54,38.65ZM192.36,83.05c-3.25,0-6.82.19-10.9.57-21.29,2.24-39.18,10.68-45.55,21.5-1.66,2.83-2.51,5.73-2.51,8.63,0,8.61,7.4,16.98,20.3,22.95,10.45,4.82,23.85,7.57,37.72,7.76l1.13.05h.49c32.33,0,59.64-14.09,59.64-30.76s-27.31-30.7-59.64-30.7h-.69Z"/>
      <path class="cls-1" d="M193.05,239.18c-16.22,0-31.83-3.25-43.96-9.16-14.98-7.2-23.58-17.94-23.58-29.44v-11.13c0-1.89,1.34-3.51,3.19-3.87,2.45-.48,4.85-1.01,7.2-1.59,1.35-.35,2.79.08,3.77,1.09,8.68,8.96,25.1,15.27,43.92,16.88,3.33.25,6.43.38,9.46.38,32.33,0,59.64-14.06,59.64-30.7,0-2.18,1.77-3.95,3.95-3.95s3.95,1.77,3.95,3.95v28.94c0,21.64-29.67,38.6-67.54,38.6ZM133.41,192.67v7.91c0,8.35,6.97,16.49,19.12,22.33,11.09,5.4,25.47,8.37,40.52,8.37,32.33,0,59.64-14.06,59.64-30.7v-10.55c-11.26,12.13-33.5,20.2-59.64,20.2-3.23,0-6.53-.13-10.09-.4-19.91-1.7-36.98-8.1-47.31-17.66-.74.17-1.49.34-2.23.5Z"/>
      <path class="cls-1" d="M129.46,193.4c-2.18,0-3.95-1.77-3.95-3.95v-17.82c0-2.18,1.77-3.95,3.95-3.95s3.95,1.77,3.95,3.95v17.82c0,2.18-1.77,3.95-3.95,3.95Z"/>
      <path class="cls-1" d="M129.46,150.58c-2.18,0-3.95-1.77-3.95-3.95v-3.94c0-2.18,1.77-3.95,3.95-3.95s3.95,1.77,3.95,3.95v3.94c0,2.18-1.77,3.95-3.95,3.95Z"/>
      <path class="cls-1" d="M193.05,210.24c-3.23,0-6.53-.13-10.09-.4-21-1.8-38.83-8.81-48.95-19.26-5.55-5.66-8.49-12.22-8.49-18.94v-25c0-1.7,1.09-3.21,2.7-3.75.12-.04.32-.09.5-.13.94-.29,1.95-.21,2.85.22,1.11.53,1.91,1.56,2.16,2.77,2.22,10.92,16.42,20.82,36.17,25.24,7.03,1.59,14.6,2.42,22.49,2.46h.66c32.33,0,59.64-14.08,59.64-30.75,0-2.18,1.77-3.95,3.95-3.95s3.95,1.77,3.95,3.95v28.94c0,21.64-29.67,38.6-67.54,38.6ZM133.41,160.99v10.65c0,4.68,2.11,9.19,6.25,13.43,8.7,8.98,25.12,15.29,43.93,16.9,3.33.25,6.43.38,9.46.38,32.33,0,59.64-14.06,59.64-30.7v-10.53c-11.26,12.14-33.5,20.23-59.64,20.23h-.69c-8.48-.05-16.62-.94-24.2-2.66-15.18-3.39-27.36-9.73-34.75-17.69Z"/>
      <path class="cls-1" d="M193.05,181.35h-.69c-8.48-.05-16.62-.94-24.2-2.66-23.13-5.16-39.3-17.18-42.18-31.37-.32-1.66-.47-3.16-.47-4.62v-28.94c0-2.18,1.77-3.95,3.95-3.95s3.95,1.77,3.95,3.95c0,8.61,7.4,16.98,20.3,22.95,10.45,4.82,23.85,7.57,37.72,7.76l.93,4v-3.95h.69c32.33,0,59.64-14.08,59.64-30.75,0-2.18,1.77-3.95,3.95-3.95s3.95,1.77,3.95,3.95v28.94c0,21.67-29.67,38.65-67.54,38.65ZM133.41,132.08v10.61c0,.96.1,1.97.32,3.09,2.21,10.88,16.41,20.78,36.16,25.2,7.03,1.59,14.6,2.42,22.49,2.46h.66c32.33,0,59.64-14.08,59.64-30.75v-10.52c-11.26,12.14-33.5,20.23-59.64,20.23h-.69c-.54,0-1,0-1.54-.09-14.67-.16-28.82-3.1-40.42-8.44-7.09-3.28-12.82-7.29-16.99-11.79Z"/>
    </g>
  </g>
</svg>