<?xml version="1.0" encoding="UTF-8"?>
<svg id="Layer_2" xmlns="http://www.w3.org/2000/svg" viewBox="0 0 305.1 242.14">
  <defs>
    <style>
      .cls-1 {
        fill: #a1a1a9;
      }
    </style>
  </defs>
  <g id="Layer_1-2" data-name="Layer_1">
    <g>
      <path class="cls-1" d="M136.03,67.32H56.13c-10.22,0-18.53-8.31-18.53-18.53v-30.27C37.6,8.31,45.91,0,56.13,0h79.9c10.22,0,18.53,8.31,18.53,18.53v30.27c0,10.22-8.31,18.53-18.53,18.53ZM56.13,9.25c-5.12,0-9.28,4.17-9.28,9.28v30.27c0,5.12,4.16,9.28,9.28,9.28h79.9c5.12,0,9.28-4.17,9.28-9.28v-30.27c0-5.11-4.16-9.28-9.28-9.28H56.13Z"/>
      <path class="cls-1" d="M136.03,154.73H56.13c-10.22,0-18.53-8.31-18.53-18.53v-30.27c0-10.22,8.31-18.53,18.53-18.53h79.9c10.22,0,18.53,8.31,18.53,18.53v30.27c0,10.21-8.31,18.53-18.53,18.53ZM56.13,96.66c-5.12,0-9.28,4.17-9.28,9.28v30.27c0,5.11,4.16,9.28,9.28,9.28h79.9c5.12,0,9.28-4.17,9.28-9.28v-30.27c0-5.12-4.16-9.28-9.28-9.28H56.13Z"/>
      <path class="cls-1" d="M136.03,242.14H56.13c-10.22,0-18.53-8.31-18.53-18.53v-30.26c0-10.22,8.31-18.53,18.53-18.53h79.9c10.22,0,18.53,8.31,18.53,18.53v30.26c0,10.22-8.31,18.53-18.53,18.53ZM56.13,184.07c-5.12,0-9.28,4.17-9.28,9.28v30.26c0,5.12,4.16,9.28,9.28,9.28h79.9c5.12,0,9.28-4.17,9.28-9.28v-30.26c0-5.12-4.16-9.28-9.28-9.28H56.13Z"/>
      <path class="cls-1" d="M286.58,154.73h-79.9c-10.22,0-18.53-8.31-18.53-18.53v-30.27c0-10.22,8.31-18.53,18.53-18.53h79.9c10.21,0,18.53,8.31,18.53,18.53v30.27c0,10.21-8.31,18.53-18.53,18.53ZM206.67,96.66c-5.12,0-9.28,4.17-9.28,9.28v30.27c0,5.11,4.16,9.28,9.28,9.28h79.9c5.12,0,9.28-4.17,9.28-9.28v-30.27c0-5.12-4.16-9.28-9.28-9.28h-79.9Z"/>
      <path class="cls-1" d="M286.58,242.14h-79.9c-10.22,0-18.53-8.31-18.53-18.53v-30.26c0-10.22,8.31-18.53,18.53-18.53h79.9c10.21,0,18.53,8.31,18.53,18.53v30.26c0,10.22-8.31,18.53-18.53,18.53ZM206.67,184.07c-5.12,0-9.28,4.17-9.28,9.28v30.26c0,5.12,4.16,9.28,9.28,9.28h79.9c5.12,0,9.28-4.17,9.28-9.28v-30.26c0-5.12-4.16-9.28-9.28-9.28h-79.9Z"/>
      <path class="cls-1" d="M96.08,96.66c-2.55,0-4.62-2.07-4.62-4.62v-29.34c0-2.55,2.07-4.62,4.62-4.62s4.62,2.07,4.62,4.62v29.34c0,2.55-2.07,4.62-4.62,4.62Z"/>
      <path class="cls-1" d="M42.23,213.1H4.62c-2.55,0-4.62-2.07-4.62-4.62v-87.41c0-2.55,2.07-4.62,4.62-4.62h37.6c2.55,0,4.62,2.07,4.62,4.62s-2.07,4.62-4.62,4.62H9.25v78.17h32.98c2.55,0,4.62,2.07,4.62,4.62s-2.07,4.62-4.62,4.62Z"/>
      <path class="cls-1" d="M192.77,125.69h-42.83c-2.55,0-4.62-2.07-4.62-4.62s2.07-4.62,4.62-4.62h42.83c2.55,0,4.62,2.07,4.62,4.62s-2.07,4.62-4.62,4.62Z"/>
      <path class="cls-1" d="M246.63,184.07c-2.55,0-4.62-2.07-4.62-4.62v-29.34c0-2.55,2.07-4.62,4.62-4.62s4.62,2.07,4.62,4.62v29.34c0,2.55-2.07,4.62-4.62,4.62Z"/>
    </g>
  </g>
</svg>